<?xml version="1.0" encoding="UTF-8" standalone="no"?>
<svg
   id="Layer_1_copy"
   data-name="Layer 1 copy"
   viewBox="0 0 582.61 231.45"
   version="1.1"
   sodipodi:docname="BYU monogram_white.svg"
   inkscape:version="1.2.1 (9c6d41e410, 2022-07-14, custom)"
   xmlns:inkscape="http://www.inkscape.org/namespaces/inkscape"
   xmlns:sodipodi="http://sodipodi.sourceforge.net/DTD/sodipodi-0.dtd"
   xmlns="http://www.w3.org/2000/svg"
   xmlns:svg="http://www.w3.org/2000/svg">
  <sodipodi:namedview
     id="namedview14"
     pagecolor="#000000"
     bordercolor="#666666"
     borderopacity="1.0"
     inkscape:showpageshadow="2"
     inkscape:pageopacity="0"
     inkscape:pagecheckerboard="0"
     inkscape:deskcolor="#d1d1d1"
     showgrid="false"
     inkscape:zoom="1.2023481"
     inkscape:cx="150.53877"
     inkscape:cy="219.15451"
     inkscape:window-width="1880"
     inkscape:window-height="1013"
     inkscape:window-x="40"
     inkscape:window-y="32"
     inkscape:window-maximized="1"
     inkscape:current-layer="Layer_1_copy" />
  <defs
     id="defs4">
    <style
       id="style2">.cls-1{fill:#fff;}</style>
  </defs>
  <g
     id="Vector_Smart_Object"
     data-name="Vector Smart Object"
     transform="matrix(1.3372762,0,0,1.3372762,-98.215112,-55.379487)">
    <path
       class="cls-1"
       d="m 498.39,76.05 c 0,-3.3 0.2,-5.39 2.41,-6.51 a 30.13,30.13 0 0 1 8.12,-2.66 h 0.07 c 0.17,0 0.18,-0.51 -0.07,-0.51 h -61.13 c -0.24,0 -0.24,0.47 -0.07,0.51 h 0.07 a 30.84,30.84 0 0 1 8.12,2.66 c 2.21,1.13 2.4,3.24 2.4,6.53 v 61.09 c 0,13.92 -8,24.62 -23.81,24.62 -15.81,0 -23.82,-10.7 -23.82,-24.62 V 76.09 c 0,-3.3 0.19,-5.43 2.41,-6.55 a 30.13,30.13 0 0 1 8.12,-2.66 h 0.07 c 0.17,0 0.17,-0.51 -0.08,-0.51 h -57.71 c -0.25,0 -0.25,0.47 -0.08,0.51 h 0.07 a 10.06,10.06 0 0 1 4.72,2.36 c 1.91,1.62 2.4,3.53 2.4,6.83 v 60 c 0,28.94 15.83,53.51 63.9,53.51 48.07,0 63.89,-24.57 63.89,-53.51 z"
       id="path6" />
    <path
       class="cls-1"
       d="m 122.73,89.19 h 18.58 c 12.11,0 19.22,1.88 19.22,12.88 0,7.16 -4.42,13.54 -18.73,13.54 h -19.07 z m 0,45.13 h 16.12 c 10.73,0 23.86,0 23.86,14.86 0,11 -9.4,14.85 -22.06,14.85 H 122.73 Z M 84.16,76.05 v 101.64 c 0,3.3 -0.19,5.42 -2.4,6.55 a 30.2,30.2 0 0 1 -8.13,2.66 h -0.07 c -0.16,0 -0.17,0.51 0.07,0.51 h 82.21 c 34.68,0 49.26,-13.76 49.26,-35.23 0,-15.86 -7.39,-25.69 -22,-29.34 -0.08,0 -0.1,-0.22 0,-0.25 9.32,-2.91 17.9,-9.74 17.9,-26.27 0,-22.4 -15.14,-30 -48.16,-30 H 73.65 c -0.24,0 -0.24,0.47 -0.07,0.51 h 0.07 a 30.49,30.49 0 0 1 8.12,2.67 c 2.23,1.16 2.39,3.25 2.39,6.55 z"
       id="path8" />
    <path
       class="cls-1"
       d="m 302,66.87 c 2.06,0 5.23,0.15 5,5 -0.18,4.18 -21.67,34.62 -24.18,39.18 -7.54,-11.42 -24.05,-34.64 -24.21,-39.18 -0.13,-3.73 3,-5 5.72,-5 h 0.07 c 0.16,0 0.17,-0.51 -0.07,-0.51 H 205 c -0.25,0 -0.24,0.47 -0.07,0.51 H 205 a 21.71,21.71 0 0 1 6.69,2.22 10.79,10.79 0 0 1 1.5,1 30.4,30.4 0 0 1 5.65,6.78 l 41.87,62 v 38.83 c 0,3.29 -0.18,5.42 -2.39,6.54 a 30.68,30.68 0 0 1 -8.13,2.67 h -0.07 c -0.17,0 -0.17,0.51 0.07,0.51 h 64.46 c 0.24,0 0.24,-0.47 0.08,-0.51 h -0.07 a 30.57,30.57 0 0 1 -8.13,-2.67 c -2.21,-1.12 -2.4,-3.24 -2.4,-6.54 v -38.57 l 41.94,-62.27 a 30.1,30.1 0 0 1 5.65,-6.78 17.35,17.35 0 0 1 1.49,-1.15 12.26,12.26 0 0 1 4.74,-2.06 H 358 c 0.16,0 0.17,-0.51 -0.08,-0.51 H 302 c -0.25,0 -0.24,0.46 -0.08,0.5 z"
       id="path10" />
  </g>
</svg>
